<svg xmlns="http://www.w3.org/2000/svg" version="1.1" xmlns:xlink="http://www.w3.org/1999/xlink" xmlns:svgjs="http://svgjs.dev/svgjs" width="1500" height="961" viewBox="0 0 1500 961"><g transform="matrix(1,0,0,1,-1.8351063829786654,-1.3237874688798001)"><svg viewBox="0 0 376 241" data-background-color="#ffffff" preserveAspectRatio="xMidYMid meet" height="961" width="1500" xmlns="http://www.w3.org/2000/svg" xmlns:xlink="http://www.w3.org/1999/xlink"><g id="tight-bounds" transform="matrix(1,0,0,1,0.46023999999999887,0.33232000000002415)"><svg viewBox="0 0 375.07953 240.3357" height="240.3357" width="375.07953"><g><svg></svg></g><g><svg viewBox="0 0 375.07953 240.3357" height="240.3357" width="375.07953"><g transform="matrix(1,0,0,1,-10.22024,-6.8643399999999986)"><path d="M10.22 240.336v-233.472h375.08v233.472h-109.158l0-3.789h105.369v-225.894h-367.502v225.894l105.369 0 0 3.789z" fill="#ff2149" fill-rule="nonzero" stroke="none" stroke-width="1" stroke-linecap="butt" stroke-linejoin="miter" stroke-miterlimit="10" stroke-dasharray="" stroke-dashoffset="0" font-family="none" font-weight="none" font-size="none" text-anchor="none" style="mix-blend-mode: normal" data-fill-palette-color="tertiary"></path><g><path transform="translate(130.03517,242.40517) scale(0.3462,0.3462)" d="M15.65 0.8v0c-1.633 0-3.257-0.35-4.87-1.05-1.62-0.7-3.08-1.743-4.38-3.13-1.3-1.38-2.35-3.103-3.15-5.17-0.8-2.067-1.2-4.45-1.2-7.15v0c0-2.767 0.41-5.25 1.23-7.45 0.813-2.2 1.953-4.077 3.42-5.63 1.467-1.547 3.217-2.737 5.25-3.57 2.033-0.833 4.267-1.25 6.7-1.25v0c0.967 0 1.927 0.117 2.88 0.35 0.947 0.233 1.82 0.523 2.62 0.87 0.8 0.353 1.46 0.737 1.98 1.15 0.513 0.42 0.787 0.83 0.82 1.23v0c0 0.467 0.017 1.083 0.05 1.85 0.033 0.767 0.017 1.507-0.05 2.22-0.067 0.72-0.223 1.347-0.47 1.88-0.253 0.533-0.68 0.8-1.28 0.8v0c-0.2 0-0.417-0.227-0.65-0.68-0.233-0.447-0.433-0.953-0.6-1.52v0c-0.233-0.633-0.467-1.367-0.7-2.2v0c-0.133-0.4-0.433-0.783-0.9-1.15-0.467-0.367-1.023-0.7-1.67-1-0.653-0.3-1.363-0.543-2.13-0.73-0.767-0.18-1.5-0.27-2.2-0.27v0c-1.867 0-3.417 0.383-4.65 1.15-1.233 0.767-2.227 1.783-2.98 3.05-0.747 1.267-1.27 2.733-1.57 4.4-0.3 1.667-0.45 3.383-0.45 5.15v0c0 2.267 0.283 4.317 0.85 6.15 0.567 1.833 1.367 3.4 2.4 4.7 1.033 1.3 2.25 2.3 3.65 3 1.4 0.7 2.917 1.05 4.55 1.05v0c0.267 0 0.627-0.033 1.08-0.1 0.447-0.067 0.92-0.16 1.42-0.28 0.5-0.113 0.993-0.28 1.48-0.5 0.48-0.213 0.887-0.47 1.22-0.77v0c0.167-0.133 0.4-0.31 0.7-0.53 0.3-0.213 0.61-0.42 0.93-0.62 0.313-0.2 0.613-0.377 0.9-0.53 0.28-0.147 0.47-0.22 0.57-0.22v0c0.233 0 0.467 0.04 0.7 0.12 0.233 0.087 0.35 0.23 0.35 0.43v0c0 0.167-0.033 0.34-0.1 0.52-0.067 0.187-0.183 0.363-0.35 0.53v0c-2.6 3.267-6.4 4.9-11.4 4.9zM30.55-10.5v0c0-1.7 0.25-3.35 0.75-4.95 0.5-1.6 1.25-3.027 2.25-4.28 1-1.247 2.25-2.247 3.75-3 1.5-0.747 3.233-1.12 5.2-1.12v0c1.8 0 3.343 0.35 4.63 1.05 1.28 0.7 2.32 1.607 3.12 2.72 0.8 1.12 1.383 2.373 1.75 3.76 0.367 1.38 0.55 2.753 0.55 4.12v0c0 0.8-0.067 1.657-0.2 2.57-0.133 0.92-0.35 1.83-0.65 2.73-0.3 0.9-0.69 1.757-1.17 2.57-0.487 0.82-1.097 1.547-1.83 2.18v0c-1.067 0.967-2.34 1.7-3.82 2.2-1.487 0.5-2.98 0.75-4.48 0.75v0c-1.367 0-2.65-0.233-3.85-0.7-1.2-0.467-2.24-1.173-3.12-2.12-0.887-0.953-1.587-2.13-2.1-3.53-0.52-1.4-0.78-3.05-0.78-4.95zM35.1-12.2v0c0 1.2 0.127 2.423 0.38 3.67 0.247 1.253 0.653 2.387 1.22 3.4 0.567 1.02 1.343 1.863 2.33 2.53 0.98 0.667 2.187 1 3.62 1v0c1 0 1.84-0.25 2.52-0.75 0.687-0.5 1.247-1.167 1.68-2 0.433-0.833 0.743-1.783 0.93-2.85 0.18-1.067 0.27-2.167 0.27-3.3v0c0-1.233-0.123-2.5-0.37-3.8-0.253-1.3-0.673-2.473-1.26-3.52-0.58-1.053-1.343-1.923-2.29-2.61-0.953-0.68-2.147-1.02-3.58-1.02v0c-1 0-1.85 0.267-2.55 0.8-0.7 0.533-1.257 1.24-1.67 2.12-0.42 0.887-0.73 1.88-0.93 2.98-0.2 1.1-0.3 2.217-0.3 3.35zM56.9-1v0c0-0.167 0.11-0.327 0.33-0.48 0.213-0.147 0.47-0.287 0.77-0.42 0.3-0.133 0.6-0.257 0.9-0.37 0.3-0.12 0.517-0.213 0.65-0.28v0-16.45c-0.667-0.133-1.35-0.35-2.05-0.65-0.7-0.3-1.05-0.567-1.05-0.8v0c0-0.333 0.2-0.677 0.6-1.03 0.4-0.347 0.89-0.653 1.47-0.92 0.587-0.267 1.213-0.493 1.88-0.68 0.667-0.18 1.25-0.27 1.75-0.27v0c0.733 0 1.133 0.167 1.2 0.5v0 2.55c1.167-1.033 2.427-1.883 3.78-2.55 1.347-0.667 2.87-1 4.57-1v0c1.167 0 2.193 0.157 3.08 0.47 0.88 0.32 1.653 0.913 2.32 1.78v0c0.667 0.867 1.093 1.723 1.28 2.57 0.18 0.853 0.27 1.713 0.27 2.58v0 13.05c0 0.4 0.16 0.673 0.48 0.82 0.313 0.153 0.653 0.28 1.02 0.38 0.367 0.1 0.7 0.217 1 0.35 0.3 0.133 0.45 0.383 0.45 0.75v0c0 0.167-0.133 0.39-0.4 0.67-0.267 0.287-0.7 0.43-1.3 0.43v0h-7.25c-0.4 0-0.657-0.117-0.77-0.35-0.12-0.233-0.18-0.45-0.18-0.65v0c0-0.167 0.11-0.327 0.33-0.48 0.213-0.147 0.463-0.287 0.75-0.42 0.28-0.133 0.563-0.257 0.85-0.37 0.28-0.12 0.487-0.213 0.62-0.28v0-12c0-2.333-0.427-3.983-1.28-4.95-0.847-0.967-1.92-1.45-3.22-1.45v0c-1 0-2.04 0.19-3.12 0.57-1.087 0.387-2.013 0.93-2.78 1.63v0 15.05c0 0.5 0.177 0.84 0.53 1.02 0.347 0.187 0.737 0.33 1.17 0.43 0.433 0.1 0.823 0.217 1.17 0.35 0.353 0.133 0.53 0.4 0.53 0.8v0c0 0.733-0.567 1.1-1.7 1.1v0h-7.7c-0.4 0-0.657-0.117-0.77-0.35-0.12-0.233-0.18-0.45-0.18-0.65zM84.6-1v0c0-0.167 0.107-0.327 0.32-0.48 0.22-0.147 0.48-0.287 0.78-0.42 0.3-0.133 0.6-0.257 0.9-0.37 0.3-0.12 0.517-0.213 0.65-0.28v0-16.45c-0.667-0.133-1.35-0.35-2.05-0.65-0.7-0.3-1.05-0.567-1.05-0.8v0c0-0.333 0.2-0.677 0.6-1.03 0.4-0.347 0.893-0.653 1.48-0.92 0.58-0.267 1.203-0.493 1.87-0.68 0.667-0.18 1.25-0.27 1.75-0.27v0c0.733 0 1.133 0.167 1.2 0.5v0 2.55c1.167-1.033 2.427-1.883 3.78-2.55 1.347-0.667 2.87-1 4.57-1v0c1.167 0 2.193 0.157 3.08 0.47 0.88 0.32 1.653 0.913 2.32 1.78v0c0.667 0.867 1.093 1.723 1.28 2.57 0.18 0.853 0.27 1.713 0.27 2.58v0 13.05c0 0.4 0.16 0.673 0.48 0.82 0.313 0.153 0.653 0.28 1.02 0.38 0.367 0.1 0.7 0.217 1 0.35 0.3 0.133 0.45 0.383 0.45 0.75v0c0 0.167-0.133 0.39-0.4 0.67-0.267 0.287-0.7 0.43-1.3 0.43v0h-7.25c-0.4 0-0.657-0.117-0.77-0.35-0.12-0.233-0.18-0.45-0.18-0.65v0c0-0.167 0.11-0.327 0.33-0.48 0.213-0.147 0.463-0.287 0.75-0.42 0.28-0.133 0.563-0.257 0.85-0.37 0.28-0.12 0.487-0.213 0.62-0.28v0-12c0-2.333-0.423-3.983-1.27-4.95-0.853-0.967-1.93-1.45-3.23-1.45v0c-1 0-2.04 0.19-3.12 0.57-1.087 0.387-2.013 0.93-2.78 1.63v0 15.05c0 0.5 0.177 0.84 0.53 1.02 0.347 0.187 0.737 0.33 1.17 0.43 0.433 0.1 0.827 0.217 1.18 0.35 0.347 0.133 0.52 0.4 0.52 0.8v0c0 0.733-0.567 1.1-1.7 1.1v0h-7.7c-0.4 0-0.657-0.117-0.77-0.35-0.12-0.233-0.18-0.45-0.18-0.65zM112-10.1v0c0-1.933 0.267-3.733 0.8-5.4 0.533-1.667 1.293-3.117 2.28-4.35 0.98-1.233 2.18-2.21 3.6-2.93 1.413-0.713 2.987-1.07 4.72-1.07v0c1.9 0 3.417 0.373 4.55 1.12 1.133 0.753 2.01 1.713 2.63 2.88 0.613 1.167 1.02 2.44 1.22 3.82 0.2 1.387 0.317 2.73 0.35 4.03v0c0 0.5-0.217 0.783-0.65 0.85-0.433 0.067-0.883 0.1-1.35 0.1v0h-13.55c0.067 1.133 0.243 2.233 0.53 3.3 0.28 1.067 0.697 2.017 1.25 2.85 0.547 0.833 1.247 1.507 2.1 2.02 0.847 0.52 1.837 0.78 2.97 0.78v0c1.233 0 2.233-0.093 3-0.28 0.767-0.18 1.4-0.38 1.9-0.6 0.5-0.213 0.927-0.413 1.28-0.6 0.347-0.18 0.72-0.27 1.12-0.27v0c0.467 0 0.7 0.183 0.7 0.55v0c0 0.433-0.25 0.89-0.75 1.37-0.5 0.487-1.173 0.937-2.02 1.35-0.853 0.42-1.837 0.757-2.95 1.01-1.12 0.247-2.297 0.37-3.53 0.37v0c-1.767 0-3.29-0.3-4.57-0.9-1.287-0.6-2.347-1.4-3.18-2.4-0.833-1-1.45-2.16-1.85-3.48-0.4-1.313-0.6-2.687-0.6-4.12zM116.6-13.3l10.6-0.35c-0.033-1.033-0.117-2.007-0.25-2.92-0.133-0.92-0.383-1.713-0.75-2.38-0.367-0.667-0.9-1.2-1.6-1.6-0.7-0.4-1.617-0.6-2.75-0.6v0c-1.667 0-2.923 0.74-3.77 2.22-0.853 1.487-1.347 3.363-1.48 5.63zM135.8-10.1v0c0-2.067 0.277-3.943 0.83-5.63 0.547-1.68 1.32-3.12 2.32-4.32 1-1.2 2.217-2.133 3.65-2.8 1.433-0.667 3.05-1 4.85-1v0c0.6 0 1.267 0.067 2 0.2 0.733 0.133 1.41 0.373 2.03 0.72 0.613 0.353 1.13 0.813 1.55 1.38 0.413 0.567 0.62 1.3 0.62 2.2v0c0 0.533-0.107 0.99-0.32 1.37-0.22 0.387-0.497 0.703-0.83 0.95-0.333 0.253-0.7 0.453-1.1 0.6-0.4 0.153-0.8 0.263-1.2 0.33v0c-0.3 0-0.55-0.093-0.75-0.28-0.2-0.18-0.333-0.57-0.4-1.17v0c-0.167-1.533-0.483-2.543-0.95-3.03-0.467-0.48-1.2-0.72-2.2-0.72v0c-1 0-1.85 0.24-2.55 0.72-0.7 0.487-1.267 1.157-1.7 2.01-0.433 0.847-0.75 1.827-0.95 2.94-0.2 1.12-0.3 2.33-0.3 3.63v0c0 1.2 0.133 2.39 0.4 3.57 0.267 1.187 0.683 2.247 1.25 3.18 0.567 0.933 1.3 1.69 2.2 2.27 0.9 0.587 1.983 0.88 3.25 0.88v0c0.667 0 1.21-0.11 1.63-0.33 0.413-0.213 0.797-0.447 1.15-0.7 0.347-0.247 0.713-0.47 1.1-0.67 0.38-0.2 0.87-0.3 1.47-0.3v0c0.433 0 0.733 0.073 0.9 0.22 0.167 0.153 0.25 0.313 0.25 0.48v0c0 0.5-0.257 1-0.77 1.5-0.52 0.5-1.17 0.95-1.95 1.35-0.787 0.4-1.63 0.727-2.53 0.98-0.9 0.247-1.733 0.37-2.5 0.37v0c-1.767 0-3.307-0.3-4.62-0.9-1.32-0.6-2.413-1.4-3.28-2.4-0.867-1-1.507-2.16-1.92-3.48-0.42-1.313-0.63-2.687-0.63-4.12zM159.25-2.85v-17.25h-2.1c-0.167-0.067-0.273-0.183-0.32-0.35-0.053-0.167-0.08-0.317-0.08-0.45v0c0-0.333 0.083-0.56 0.25-0.68 0.167-0.113 0.383-0.247 0.65-0.4 0.267-0.147 0.577-0.353 0.93-0.62 0.347-0.267 0.703-0.7 1.07-1.3v0c0.233-0.433 0.417-0.96 0.55-1.58 0.133-0.613 0.277-1.203 0.43-1.77 0.147-0.567 0.33-1.05 0.55-1.45 0.213-0.4 0.503-0.6 0.87-0.6v0c0.267 0 0.56 0.017 0.88 0.05 0.313 0.033 0.537 0.083 0.67 0.15v0 6.2h4.75c0.433 0 0.71 0.083 0.83 0.25 0.113 0.167 0.17 0.383 0.17 0.65v0c0 0.4-0.14 0.807-0.42 1.22-0.287 0.42-0.663 0.647-1.13 0.68v0h-4.2v12.75c0 1.2 0.017 2.133 0.05 2.8 0.033 0.667 0.127 1.167 0.28 1.5 0.147 0.333 0.38 0.54 0.7 0.62 0.313 0.087 0.77 0.13 1.37 0.13v0c0.467 0 0.96-0.093 1.48-0.28 0.513-0.18 1.053-0.27 1.62-0.27v0c0.5 0 0.783 0.123 0.85 0.37 0.067 0.253 0.1 0.413 0.1 0.48v0c0 0.4-0.25 0.767-0.75 1.1-0.5 0.333-1.123 0.617-1.87 0.85-0.753 0.233-1.58 0.41-2.48 0.53-0.9 0.113-1.733 0.17-2.5 0.17v0c-0.833 0-1.573-0.3-2.22-0.9-0.653-0.6-0.98-1.467-0.98-2.6zM173.35-1v0c0-0.167 0.133-0.333 0.4-0.5 0.267-0.167 0.583-0.327 0.95-0.48 0.367-0.147 0.727-0.28 1.08-0.4 0.347-0.113 0.62-0.22 0.82-0.32v0-16.3c-0.333-0.067-0.69-0.16-1.07-0.28-0.387-0.113-0.737-0.237-1.05-0.37-0.32-0.133-0.587-0.267-0.8-0.4-0.22-0.133-0.33-0.267-0.33-0.4v0c0-0.333 0.2-0.677 0.6-1.03 0.4-0.347 0.9-0.653 1.5-0.92 0.6-0.267 1.233-0.493 1.9-0.68 0.667-0.18 1.267-0.27 1.8-0.27v0c0.3 0 0.633 0.033 1 0.1 0.367 0.067 0.583 0.2 0.65 0.4v0 19.15c0 0.5 0.183 0.84 0.55 1.02 0.367 0.187 0.767 0.33 1.2 0.43 0.433 0.1 0.833 0.217 1.2 0.35 0.367 0.133 0.55 0.4 0.55 0.8v0c0 0.733-0.567 1.1-1.7 1.1v0h-8.3c-0.4 0-0.657-0.117-0.77-0.35-0.12-0.233-0.18-0.45-0.18-0.65zM178.7-27.7v0c-0.733 0-1.35-0.093-1.85-0.28-0.5-0.18-0.883-0.387-1.15-0.62-0.267-0.233-0.457-0.467-0.57-0.7-0.12-0.233-0.18-0.4-0.18-0.5v0c0-0.267 0.083-0.583 0.25-0.95 0.167-0.367 0.383-0.71 0.65-1.03 0.267-0.313 0.567-0.58 0.9-0.8 0.333-0.213 0.667-0.32 1-0.32v0c1.467 0 2.483 0.267 3.05 0.8 0.567 0.533 0.85 1.033 0.85 1.5v0c0 0.3-0.09 0.617-0.27 0.95-0.187 0.333-0.42 0.64-0.7 0.92-0.287 0.287-0.603 0.53-0.95 0.73-0.353 0.2-0.697 0.3-1.03 0.3zM187.35-1v0c0-0.167 0.11-0.327 0.33-0.48 0.213-0.147 0.47-0.287 0.77-0.42 0.3-0.133 0.6-0.257 0.9-0.37 0.3-0.12 0.517-0.213 0.65-0.28v0-16.45c-0.667-0.133-1.35-0.35-2.05-0.65-0.7-0.3-1.05-0.567-1.05-0.8v0c0-0.333 0.2-0.677 0.6-1.03 0.4-0.347 0.893-0.653 1.48-0.92 0.58-0.267 1.203-0.493 1.87-0.68 0.667-0.18 1.25-0.27 1.75-0.27v0c0.733 0 1.133 0.167 1.2 0.5v0 2.55c1.167-1.033 2.427-1.883 3.78-2.55 1.347-0.667 2.87-1 4.57-1v0c1.167 0 2.193 0.157 3.08 0.47 0.88 0.32 1.653 0.913 2.32 1.78v0c0.667 0.867 1.093 1.723 1.28 2.57 0.18 0.853 0.27 1.713 0.27 2.58v0 13.05c0 0.4 0.16 0.673 0.48 0.82 0.313 0.153 0.653 0.28 1.02 0.38 0.367 0.1 0.7 0.217 1 0.35 0.3 0.133 0.45 0.383 0.45 0.75v0c0 0.167-0.133 0.39-0.4 0.67-0.267 0.287-0.7 0.43-1.3 0.43v0h-7.25c-0.4 0-0.657-0.117-0.77-0.35-0.12-0.233-0.18-0.45-0.18-0.65v0c0-0.167 0.11-0.327 0.33-0.48 0.213-0.147 0.463-0.287 0.75-0.42 0.28-0.133 0.563-0.257 0.85-0.37 0.28-0.12 0.487-0.213 0.62-0.28v0-12c0-2.333-0.423-3.983-1.27-4.95-0.853-0.967-1.93-1.45-3.23-1.45v0c-1 0-2.04 0.19-3.12 0.57-1.087 0.387-2.013 0.93-2.78 1.63v0 15.05c0 0.5 0.177 0.84 0.53 1.02 0.347 0.187 0.737 0.33 1.17 0.43 0.433 0.1 0.827 0.217 1.18 0.35 0.347 0.133 0.52 0.4 0.52 0.8v0c0 0.733-0.567 1.1-1.7 1.1v0h-7.7c-0.4 0-0.657-0.117-0.77-0.35-0.12-0.233-0.18-0.45-0.18-0.65zM216.7-3.4v0c0-0.933 0.35-1.817 1.05-2.65 0.7-0.833 1.483-1.583 2.35-2.25v0c-1.8-0.367-3.207-1.093-4.22-2.18-1.02-1.08-1.53-2.57-1.53-4.47v0c0-1.433 0.267-2.7 0.8-3.8 0.533-1.1 1.277-2.027 2.23-2.78 0.947-0.747 2.087-1.32 3.42-1.72 1.333-0.4 2.817-0.6 4.45-0.6v0c1.333 0 2.6 0.233 3.8 0.7v0c0.533-0.433 1.093-0.917 1.68-1.45 0.58-0.533 1.12-1.033 1.62-1.5 0.5-0.467 0.943-0.86 1.33-1.18 0.38-0.313 0.653-0.47 0.82-0.47v0c0.4 0 0.8 0.15 1.2 0.45 0.4 0.3 0.6 0.683 0.6 1.15v0c0 0.633-0.223 1.173-0.67 1.62-0.453 0.453-0.987 0.82-1.6 1.1-0.62 0.287-1.247 0.513-1.88 0.68-0.633 0.167-1.15 0.317-1.55 0.45v0c0.833 0.567 1.5 1.283 2 2.15 0.5 0.867 0.75 1.833 0.75 2.9v0c0 1.633-0.267 3.033-0.8 4.2-0.533 1.167-1.25 2.123-2.15 2.87-0.9 0.753-1.94 1.303-3.12 1.65-1.187 0.353-2.43 0.53-3.73 0.53v0h-1.2c-0.333 0.467-0.623 0.99-0.87 1.57-0.253 0.587-0.38 1.247-0.38 1.98v0c0 0.633 0.25 1.05 0.75 1.25 0.5 0.2 1.2 0.3 2.1 0.3v0c3.9 0.133 6.693 0.75 8.38 1.85 1.68 1.1 2.52 2.483 2.52 4.15v0c0 1.9-0.433 3.533-1.3 4.9-0.867 1.367-1.957 2.483-3.27 3.35-1.32 0.867-2.747 1.5-4.28 1.9-1.533 0.4-2.95 0.6-4.25 0.6v0c-2.667 0-4.657-0.657-5.97-1.97-1.32-1.32-1.98-3.047-1.98-5.18v0c0-0.867 0.15-1.657 0.45-2.37 0.3-0.72 0.693-1.353 1.18-1.9 0.48-0.553 1.013-1.037 1.6-1.45 0.58-0.42 1.17-0.78 1.77-1.08v0c-0.767-0.2-1.3-0.61-1.6-1.23-0.3-0.613-0.467-1.303-0.5-2.07zM224.2-10.5v0c1.6 0 2.877-0.35 3.83-1.05 0.947-0.7 1.42-1.95 1.42-3.75v0c0-2-0.583-3.517-1.75-4.55-1.167-1.033-2.583-1.55-4.25-1.55v0c-1.867 0-3.173 0.317-3.92 0.95-0.753 0.633-1.13 1.8-1.13 3.5v0c0 2.1 0.443 3.7 1.33 4.8 0.88 1.1 2.37 1.65 4.47 1.65zM217.95 5.35v0c0 1.667 0.517 3.01 1.55 4.03 1.033 1.013 2.8 1.52 5.3 1.52v0c1.333 0 2.4-0.133 3.2-0.4 0.8-0.267 1.41-0.657 1.83-1.17 0.413-0.52 0.687-1.187 0.82-2 0.133-0.82 0.2-1.78 0.2-2.88v0c0-1.233-0.817-2.257-2.45-3.07-1.633-0.82-4.083-1.28-7.35-1.38v0c-2.067 1.3-3.1 3.083-3.1 5.35zM252.7-1.2v0c0-0.2 0.133-0.377 0.4-0.53 0.267-0.147 0.577-0.28 0.93-0.4 0.347-0.113 0.703-0.22 1.07-0.32 0.367-0.1 0.633-0.2 0.8-0.3v0-27.4c-0.167-0.1-0.433-0.193-0.8-0.28-0.367-0.08-0.723-0.187-1.07-0.32-0.353-0.133-0.663-0.277-0.93-0.43-0.267-0.147-0.4-0.32-0.4-0.52v0c0-0.2 0.06-0.45 0.18-0.75 0.113-0.3 0.37-0.45 0.77-0.45v0h4.45c0.967 0 1.81-0.027 2.53-0.08 0.713-0.047 1.397-0.103 2.05-0.17 0.647-0.067 1.313-0.127 2-0.18 0.68-0.047 1.487-0.07 2.42-0.07v0c1.2 0 2.377 0.173 3.53 0.52 1.147 0.353 2.18 0.913 3.1 1.68 0.913 0.767 1.653 1.74 2.22 2.92 0.567 1.187 0.85 2.613 0.85 4.28v0c0 2.2-0.34 4.093-1.02 5.68-0.687 1.58-1.663 2.887-2.93 3.92-1.267 1.033-2.777 1.79-4.53 2.27-1.747 0.487-3.703 0.73-5.87 0.73v0c-0.167 0-0.45 0-0.85 0-0.4 0-0.833-0.017-1.3-0.05v0 7.75c0 0.5 0.217 0.84 0.65 1.02 0.433 0.187 0.91 0.323 1.43 0.41 0.513 0.08 0.987 0.187 1.42 0.32 0.433 0.133 0.65 0.417 0.65 0.85v0c0 0.167-0.133 0.39-0.4 0.67-0.267 0.287-0.7 0.43-1.3 0.43v0h-9.1c-0.4 0-0.657-0.15-0.77-0.45-0.12-0.3-0.18-0.55-0.18-0.75zM260.3-30.45v16.5c0.433 0.067 0.877 0.123 1.33 0.17 0.447 0.053 0.953 0.08 1.52 0.08v0c2.833 0 5.067-0.79 6.7-2.37 1.633-1.587 2.45-4.08 2.45-7.48v0c0-1.367-0.19-2.5-0.57-3.4-0.387-0.9-0.963-1.627-1.73-2.18-0.767-0.547-1.707-0.93-2.82-1.15-1.12-0.213-2.413-0.32-3.88-0.32v0c-1 0-2 0.05-3 0.15zM279.65-10.1v0c0-1.933 0.267-3.733 0.8-5.4 0.533-1.667 1.293-3.117 2.28-4.35 0.98-1.233 2.177-2.21 3.59-2.93 1.42-0.713 2.997-1.07 4.73-1.07v0c1.9 0 3.417 0.373 4.55 1.12 1.133 0.753 2.01 1.713 2.63 2.88 0.613 1.167 1.02 2.44 1.22 3.82 0.2 1.387 0.317 2.73 0.35 4.03v0c0 0.5-0.217 0.783-0.65 0.85-0.433 0.067-0.883 0.1-1.35 0.1v0h-13.55c0.067 1.133 0.243 2.233 0.53 3.3 0.28 1.067 0.697 2.017 1.25 2.85 0.547 0.833 1.247 1.507 2.1 2.02 0.847 0.52 1.837 0.78 2.97 0.78v0c1.233 0 2.233-0.093 3-0.28 0.767-0.18 1.4-0.38 1.9-0.6 0.5-0.213 0.927-0.413 1.28-0.6 0.347-0.18 0.72-0.27 1.12-0.27v0c0.467 0 0.7 0.183 0.7 0.55v0c0 0.433-0.25 0.89-0.75 1.37-0.5 0.487-1.177 0.937-2.03 1.35-0.847 0.42-1.827 0.757-2.94 1.01-1.12 0.247-2.297 0.37-3.53 0.37v0c-1.767 0-3.29-0.3-4.57-0.9-1.287-0.6-2.347-1.4-3.18-2.4-0.833-1-1.45-2.16-1.85-3.48-0.4-1.313-0.6-2.687-0.6-4.12zM284.25-13.3l10.6-0.35c-0.033-1.033-0.117-2.007-0.25-2.92-0.133-0.92-0.383-1.713-0.75-2.38-0.367-0.667-0.9-1.2-1.6-1.6-0.7-0.4-1.617-0.6-2.75-0.6v0c-1.667 0-2.923 0.74-3.77 2.22-0.853 1.487-1.347 3.363-1.48 5.63zM304.05-10.5v0c0-1.7 0.25-3.35 0.75-4.95 0.5-1.6 1.25-3.027 2.25-4.28 1-1.247 2.25-2.247 3.75-3 1.5-0.747 3.233-1.12 5.2-1.12v0c1.8 0 3.343 0.35 4.63 1.05 1.28 0.7 2.32 1.607 3.12 2.72 0.8 1.12 1.383 2.373 1.75 3.76 0.367 1.38 0.55 2.753 0.55 4.12v0c0 0.8-0.067 1.657-0.2 2.57-0.133 0.92-0.35 1.83-0.65 2.73-0.3 0.9-0.69 1.757-1.17 2.57-0.487 0.82-1.097 1.547-1.83 2.18v0c-1.067 0.967-2.34 1.7-3.82 2.2-1.487 0.5-2.98 0.75-4.48 0.75v0c-1.367 0-2.65-0.233-3.85-0.7-1.2-0.467-2.24-1.173-3.12-2.12-0.887-0.953-1.587-2.13-2.1-3.53-0.52-1.4-0.78-3.05-0.78-4.95zM308.6-12.2v0c0 1.2 0.127 2.423 0.38 3.67 0.247 1.253 0.653 2.387 1.22 3.4 0.567 1.02 1.343 1.863 2.33 2.53 0.98 0.667 2.187 1 3.62 1v0c1 0 1.843-0.25 2.53-0.75 0.68-0.5 1.237-1.167 1.67-2 0.433-0.833 0.743-1.783 0.93-2.85 0.18-1.067 0.27-2.167 0.27-3.3v0c0-1.233-0.123-2.5-0.37-3.8-0.253-1.3-0.67-2.473-1.25-3.52-0.587-1.053-1.353-1.923-2.3-2.61-0.953-0.68-2.147-1.02-3.58-1.02v0c-1 0-1.85 0.267-2.55 0.8-0.7 0.533-1.257 1.24-1.67 2.12-0.42 0.887-0.73 1.88-0.93 2.98-0.2 1.1-0.3 2.217-0.3 3.35zM336.65 0.25v6.9c0 0.5 0.2 0.843 0.6 1.03 0.4 0.18 0.85 0.313 1.35 0.4 0.5 0.08 0.95 0.187 1.35 0.32 0.4 0.133 0.6 0.417 0.6 0.85v0c0 0.733-0.567 1.1-1.7 1.1v0h-8.1c-0.4 0-0.657-0.117-0.77-0.35-0.12-0.233-0.18-0.45-0.18-0.65v0c0-0.133 0.11-0.283 0.33-0.45 0.213-0.167 0.47-0.317 0.77-0.45 0.3-0.133 0.6-0.257 0.9-0.37 0.3-0.12 0.517-0.213 0.65-0.28v0-26.8c-0.733-0.133-1.423-0.367-2.07-0.7-0.653-0.333-0.98-0.633-0.98-0.9v0c0-0.333 0.207-0.693 0.62-1.08 0.42-0.38 0.92-0.73 1.5-1.05 0.587-0.313 1.213-0.58 1.88-0.8 0.667-0.213 1.25-0.32 1.75-0.32v0c0.733 0 1.167 0.233 1.3 0.7v0 2.05c0.867-1 1.843-1.793 2.93-2.38 1.08-0.58 2.453-0.87 4.12-0.87v0c1.233 0 2.417 0.233 3.55 0.7 1.133 0.467 2.14 1.15 3.02 2.05 0.887 0.9 1.597 2.007 2.13 3.32 0.533 1.32 0.8 2.813 0.8 4.48v0c0 1.7-0.257 3.383-0.77 5.05-0.52 1.667-1.313 3.173-2.38 4.52-1.067 1.353-2.41 2.447-4.03 3.28-1.613 0.833-3.503 1.25-5.67 1.25v0c-1.233 0-2.4-0.183-3.5-0.55zM336.65-18.7v14.3c0.233 0.5 0.577 0.9 1.03 1.2 0.447 0.3 0.937 0.533 1.47 0.7 0.533 0.167 1.067 0.283 1.6 0.35 0.533 0.067 0.983 0.1 1.35 0.1v0c1.167 0 2.133-0.243 2.9-0.73 0.767-0.48 1.383-1.137 1.85-1.97 0.467-0.833 0.8-1.793 1-2.88 0.2-1.08 0.3-2.237 0.3-3.47v0c0-2.967-0.59-5.367-1.77-7.2-1.187-1.833-2.88-2.75-5.08-2.75v0c-1.833 0-3.383 0.783-4.65 2.35zM356-1v0c0-0.167 0.107-0.327 0.32-0.48 0.22-0.147 0.48-0.287 0.78-0.42 0.3-0.133 0.6-0.257 0.9-0.37 0.3-0.12 0.517-0.213 0.65-0.28v0-30.4c-0.733-0.1-1.36-0.25-1.88-0.45-0.513-0.2-0.77-0.4-0.77-0.6v0c0-0.467 0.2-0.833 0.6-1.1 0.4-0.267 0.89-0.483 1.47-0.65 0.587-0.167 1.207-0.277 1.86-0.33 0.647-0.047 1.237-0.07 1.77-0.07v0c0.633 0 1.017 0.15 1.15 0.45v0 32c0 0.5 0.183 0.84 0.55 1.02 0.367 0.187 0.777 0.323 1.23 0.41 0.447 0.08 0.853 0.187 1.22 0.32 0.367 0.133 0.55 0.417 0.55 0.85v0c0 0.733-0.567 1.1-1.7 1.1v0h-7.75c-0.4 0-0.657-0.117-0.77-0.35-0.12-0.233-0.18-0.45-0.18-0.65zM369.05-10.1v0c0-1.933 0.267-3.733 0.8-5.4 0.533-1.667 1.293-3.117 2.28-4.35 0.98-1.233 2.177-2.21 3.59-2.93 1.42-0.713 2.997-1.07 4.73-1.07v0c1.9 0 3.417 0.373 4.55 1.12 1.133 0.753 2.01 1.713 2.63 2.88 0.613 1.167 1.02 2.44 1.22 3.82 0.2 1.387 0.317 2.73 0.35 4.03v0c0 0.5-0.217 0.783-0.65 0.85-0.433 0.067-0.883 0.1-1.35 0.1v0h-13.55c0.067 1.133 0.243 2.233 0.53 3.3 0.28 1.067 0.697 2.017 1.25 2.85 0.547 0.833 1.243 1.507 2.09 2.02 0.853 0.52 1.847 0.78 2.98 0.78v0c1.233 0 2.233-0.093 3-0.28 0.767-0.18 1.4-0.38 1.9-0.6 0.5-0.213 0.927-0.413 1.28-0.6 0.347-0.18 0.72-0.27 1.12-0.27v0c0.467 0 0.7 0.183 0.7 0.55v0c0 0.433-0.25 0.89-0.75 1.37-0.5 0.487-1.177 0.937-2.03 1.35-0.847 0.42-1.83 0.757-2.95 1.01-1.113 0.247-2.287 0.37-3.52 0.37v0c-1.767 0-3.29-0.3-4.57-0.9-1.287-0.6-2.347-1.4-3.18-2.4-0.833-1-1.45-2.16-1.85-3.48-0.4-1.313-0.6-2.687-0.6-4.12zM373.65-13.3l10.6-0.35c-0.033-1.033-0.117-2.007-0.25-2.92-0.133-0.92-0.383-1.713-0.75-2.38-0.367-0.667-0.9-1.2-1.6-1.6-0.7-0.4-1.617-0.6-2.75-0.6v0c-1.667 0-2.923 0.74-3.77 2.22-0.853 1.487-1.347 3.363-1.48 5.63z" fill="#ff2149" fill-rule="nonzero" stroke="none" stroke-width="1" stroke-linecap="butt" stroke-linejoin="miter" stroke-miterlimit="10" stroke-dasharray="" stroke-dashoffset="0" font-family="none" font-weight="none" font-size="none" text-anchor="none" style="mix-blend-mode: normal" data-fill-palette-color="secondary" id="text-1"></path></g></g><g transform="matrix(1,0,0,1,29.33176499999999,45.9419305059628)"><svg viewBox="0 0 316.416 148.4518389880744" height="148.4518389880744" width="316.416"><g><svg viewBox="0 0 316.416 148.4518389880744" height="148.4518389880744" width="316.416"><g transform="matrix(1,0,0,1,0,106.43761546383242)"><svg viewBox="0 0 316.416 42.01422352424198" height="42.01422352424198" width="316.416"><g id="textblocktransform"><svg viewBox="0 0 316.416 42.01422352424198" height="42.01422352424198" width="316.416" id="textblock"><g><svg viewBox="0 0 316.416 42.01422352424198" height="42.01422352424198" width="316.416"><g transform="matrix(1,0,0,1,0,0)"><svg width="316.416" viewBox="4.83 -43.51 333.33000000000004 44.269999999999996" height="42.01422352424198" data-palette-color="#ff2149"><path d="M5.27-2.39L5.27-2.39Q5.22-3.37 5.3-4.37 5.37-5.37 5.4-6.47L5.4-6.47 4.83-34.57Q4.83-36.21 5.41-37.07 5.98-37.94 7.03-37.94L7.03-37.94Q7.98-37.94 8.52-37.89 9.06-37.84 9.47-37.79L9.47-37.79Q9.72-37.74 9.96-37.74 10.21-37.74 10.47-37.74L10.47-37.74 23.95-37.74Q26-37.74 26.84-37.18 27.69-36.62 27.69-35.38L27.69-35.38Q27.69-34.52 27.45-33.98 27.22-33.45 26.76-33.13 26.29-32.81 25.6-32.7 24.9-32.59 23.97-32.59L23.97-32.59 10.52-32.62 10.67-23.34Q13.38-23.34 15.52-23.35 17.65-23.36 19.32-23.39 21-23.41 22.25-23.45 23.51-23.49 24.46-23.51L24.46-23.51Q24.71-23.51 24.93-23.52 25.15-23.54 25.34-23.54L25.34-23.54Q25.76-23.56 26.18-23.56 26.61-23.56 26.88-23.56L26.88-23.56Q27.54-23.56 28.05-23.3 28.56-23.05 28.92-22.64 29.27-22.24 29.46-21.77 29.64-21.29 29.64-20.87L29.64-20.87Q29.64-19.58 28.76-18.96 27.88-18.33 26.54-18.33L26.54-18.33 10.67-18.31 10.67-6.03Q10.67-5.54 10.75-5.07 10.84-4.59 10.95-4.11 11.06-3.64 11.16-3.15 11.25-2.66 11.25-2.15L11.25-2.15Q11.25-1.51 11.11-0.99 10.96-0.46 10.58-0.09 10.21 0.29 9.57 0.5 8.94 0.71 7.96 0.71L7.96 0.71Q6.64 0.71 5.96-0.04 5.27-0.78 5.27-2.39ZM37.38-2.17L37.38-2.17Q37.38-3.03 37.4-3.88 37.42-4.74 37.45-5.76L37.45-5.76 37.45-24.58Q37.45-25.27 37.3-25.96 37.16-26.66 37.16-27.42L37.16-27.42Q37.16-28.71 38.08-29.39 39.01-30.08 40.6-30.08L40.6-30.08Q41.28-30.08 41.79-29.85 42.31-29.61 42.65-29.25 42.99-28.88 43.16-28.42 43.33-27.95 43.33-27.47L43.33-27.47Q43.33-27.05 43.27-26.62 43.21-26.2 43.14-25.78L43.14-25.78Q46.87-26.71 49.5-27.47 52.12-28.22 53.61-28.71L53.61-28.71Q53.93-29.27 54.5-29.68 55.08-30.08 56-30.08L56-30.08Q57.35-30.08 58.14-29.38 58.93-28.69 58.93-27.64L58.93-27.64Q58.93-27.22 58.88-26.78 58.84-26.34 58.84-25.9L58.84-25.9Q58.69-24.41 58.77-22.88 58.86-21.34 58.98-19.78L58.98-19.78Q59.03-19.29 59.04-18.74 59.06-18.19 59.06-17.63L59.06-17.63Q59.06-17.04 58.76-16.65 58.47-16.26 58.02-16.03 57.57-15.8 57.03-15.7 56.49-15.6 55.98-15.6L55.98-15.6Q55.25-15.6 54.76-15.86 54.27-16.11 53.96-16.52 53.66-16.92 53.53-17.42 53.39-17.92 53.39-18.41L53.39-18.41Q53.39-19.53 53.42-20.69 53.44-21.85 53.46-23.24L53.46-23.24Q52.54-23.02 50.91-22.66 49.29-22.29 47.36-21.88L47.36-21.88Q46.26-21.61 45.19-21.37 44.11-21.14 43.02-20.9L43.02-20.9 43.02-4.96 43.75-5.18Q44.24-5.35 44.68-5.48 45.11-5.62 45.68-5.66L45.68-5.66Q46.14-5.62 46.59-5.44 47.04-5.27 47.4-4.96 47.75-4.64 47.97-4.16 48.19-3.69 48.19-3.08L48.19-3.08Q48.19-2.51 48.01-2 47.82-1.49 47.51-1.09 47.19-0.68 46.76-0.43 46.34-0.17 45.82-0.15L45.82-0.15Q45.48-0.1 44.89 0.01 44.31 0.12 43.53 0.27L43.53 0.27Q42.28 0.51 41.51 0.61 40.74 0.71 40.23 0.71L40.23 0.71Q39.67 0.71 39.15 0.52 38.62 0.34 38.23-0.02 37.84-0.39 37.61-0.93 37.38-1.46 37.38-2.17ZM74.48-33.64L74.48-33.64Q73.9-33.37 73.26-33.39 72.63-33.4 72.1-33.65 71.58-33.91 71.19-34.4 70.8-34.89 70.7-35.57L70.7-35.57Q70.62-36.04 70.73-36.63 70.84-37.23 71.03-37.85 71.21-38.48 71.37-39.07 71.53-39.67 71.58-40.16L71.58-40.16Q71.65-41.26 72.24-41.99 72.82-42.72 73.99-42.9L73.99-42.9Q74.85-43.04 75.61-42.8 76.36-42.55 76.73-41.72L76.73-41.72Q76.85-41.46 76.94-41.1 77.02-40.75 77.07-40.48L77.07-40.48Q77.09-40.23 77.06-39.87 77.02-39.5 76.92-39.1 76.83-38.7 76.69-38.29 76.56-37.89 76.44-37.6L76.44-37.6Q76.24-37.18 76.18-36.71 76.12-36.23 76.04-35.84L76.04-35.84Q75.97-35.45 75.9-35.13 75.83-34.81 75.67-34.55 75.51-34.28 75.23-34.06 74.95-33.84 74.48-33.64ZM70.31-1.83L70.31-1.83Q70.31-2.44 70.37-2.86 70.43-3.27 70.49-3.77 70.55-4.27 70.61-4.96 70.67-5.64 70.67-6.81L70.67-6.81Q70.67-11.18 70.65-15.49 70.62-19.8 70.53-24.61L70.53-24.61Q70.16-24.58 69.7-24.56 69.23-24.54 68.73-24.52 68.23-24.51 67.77-24.5 67.3-24.49 66.94-24.49L66.94-24.49Q66.5-24.49 66.05-24.62 65.6-24.76 65.23-25.07 64.86-25.39 64.62-25.89 64.37-26.39 64.37-27.12L64.37-27.12Q64.37-28.42 65.07-29.09 65.77-29.76 66.72-29.76L66.72-29.76Q67.65-29.76 68.56-29.68 69.48-29.59 70.36-29.59L70.36-29.59Q71.26-29.59 72.16-29.68 73.07-29.76 73.87-29.76L73.87-29.76Q75.12-29.76 75.65-29.1 76.19-28.44 76.19-27.27L76.19-27.27Q76.19-26.27 76.02-25.31 75.85-24.34 75.85-23.24L75.85-23.24Q75.85-21.04 75.83-18.82 75.8-16.6 75.79-14.31 75.78-12.01 75.76-9.62 75.75-7.23 75.8-4.69L75.8-4.69Q76.19-4.71 76.51-4.81 76.83-4.91 77.12-5.02 77.41-5.13 77.74-5.21 78.07-5.3 78.49-5.3L78.49-5.3Q79.12-5.3 79.52-5.15 79.93-5 80.17-4.75 80.41-4.49 80.54-4.11 80.66-3.74 80.76-3.3L80.76-3.3Q80.93-2.15 80.2-1.46 79.46-0.78 78.19-0.39L78.19-0.39Q77.46-0.2 76.69 0 75.92 0.2 75.24 0.35 74.56 0.51 73.99 0.61 73.43 0.71 73.12 0.71L73.12 0.71Q71.67 0.71 70.99 0.04 70.31-0.63 70.31-1.83ZM91.76-11.01L91.76-11.01Q92.23-9.18 93.14-7.95 94.06-6.71 95.21-5.96 96.35-5.2 97.64-4.87 98.92-4.54 100.14-4.54L100.14-4.54Q102.04-4.54 103.53-4.87 105.02-5.2 106.08-5.68 107.15-6.15 107.81-6.67 108.46-7.18 108.73-7.57L108.73-7.57Q108.98-7.93 109.28-8.26 109.59-8.59 109.94-8.85 110.3-9.11 110.65-9.25 111-9.4 111.32-9.4L111.32-9.4Q112.54-9.4 113.21-8.68 113.88-7.96 113.88-6.74L113.88-6.74Q113.88-6.27 113.54-5.57 113.2-4.86 112.27-4L112.27-4Q111.25-3.05 109.99-2.2 108.73-1.34 107.22-0.7 105.71-0.05 103.94 0.33 102.17 0.71 100.11 0.71L100.11 0.71Q97.7 0.71 95.7 0.06 93.69-0.59 92.11-1.7 90.52-2.81 89.35-4.27 88.18-5.74 87.39-7.4 86.61-9.06 86.22-10.82 85.83-12.57 85.83-14.23L85.83-14.23Q85.83-17.85 87-20.76 88.18-23.68 90.23-25.76 92.28-27.83 95.09-28.96 97.89-30.08 101.16-30.08L101.16-30.08Q103.51-30.08 105.56-29.38 107.61-28.69 109.21-27.43 110.81-26.17 111.89-24.43 112.98-22.68 113.42-20.58L113.42-20.58Q113.91-20.17 114.14-19.49 114.37-18.82 114.37-18.16L114.37-18.16Q114.37-17.07 113.63-16.37 112.88-15.67 111.76-15.41L111.76-15.41Q109.29-14.77 106.83-14.23 104.36-13.7 101.87-13.18 99.38-12.67 96.86-12.13 94.33-11.6 91.76-11.01ZM91.35-15.53L91.35-15.53Q95.5-16.5 99.75-17.36 104-18.21 108.39-19.26L108.39-19.26Q107.98-20.39 107.27-21.4 106.56-22.41 105.61-23.17 104.66-23.93 103.5-24.37 102.34-24.8 100.99-24.8L100.99-24.8Q98.92-24.8 97.22-24.13 95.52-23.46 94.28-22.25 93.03-21.04 92.28-19.32 91.52-17.6 91.35-15.53ZM124.18-1.81L124.18-1.81Q124.18-2.25 124.22-2.71 124.26-3.17 124.31-3.61L124.31-3.61Q124.38-4.27 124.45-5.05 124.53-5.83 124.53-6.81L124.53-6.81Q124.53-8.72 124.51-10.41 124.5-12.11 124.45-13.92L124.45-13.92Q124.45-13.96 124.45-14.07 124.45-14.18 124.44-14.53 124.43-14.87 124.42-15.53 124.4-16.19 124.38-17.38 124.36-18.58 124.32-20.37 124.28-22.17 124.23-24.76L124.23-24.76Q123.92-24.71 123.49-24.67 123.06-24.63 122.48-24.63L122.48-24.63Q122.04-24.63 121.58-24.78 121.13-24.93 120.75-25.23 120.38-25.54 120.14-26.04 119.91-26.54 119.91-27.27L119.91-27.27Q119.91-28.59 120.58-29.26 121.25-29.93 122.23-29.93L122.23-29.93Q122.62-29.93 122.99-29.83 123.35-29.74 123.77-29.74L123.77-29.74Q124.26-29.74 124.77-29.76 125.28-29.79 125.77-29.83L125.77-29.83Q126.31-29.88 126.83-29.91 127.36-29.93 127.77-29.93L127.77-29.93Q128.77-29.93 129.43-29.27 130.09-28.61 130.09-27.42L130.09-27.42Q130.09-27.12 130.08-26.73 130.07-26.34 130.02-25.98L130.02-25.98Q130.85-26.78 131.9-27.51 132.95-28.25 134.18-28.82 135.41-29.39 136.83-29.74 138.25-30.08 139.83-30.08L139.83-30.08Q142.93-30.08 145.27-29.06 147.6-28.05 149.17-26.14 150.75-24.22 151.54-21.44 152.33-18.65 152.33-15.11L152.33-15.11Q152.33-14.04 152.19-12.87 152.04-11.69 151.78-10.52 151.53-9.35 151.17-8.19 150.82-7.03 150.38-6.01L150.38-6.01Q150.94-6.18 151.45-6.3 151.97-6.42 152.31-6.47L152.31-6.47Q155.04-6.74 155.04-3.98L155.04-3.98Q155.04-3.64 154.97-3.23 154.9-2.83 154.68-2.45 154.46-2.08 154.07-1.75 153.68-1.42 153.07-1.2L153.07-1.2 150.43-0.59Q149.21-0.22 148.46 0.04 147.72 0.29 147.22 0.45 146.72 0.61 146.38 0.67 146.03 0.73 145.62 0.71L145.62 0.71Q145.03 0.71 144.59 0.43 144.16 0.15 143.86-0.28 143.57-0.71 143.42-1.22 143.28-1.73 143.28-2.22L143.28-2.22Q143.28-3 143.5-3.81 143.72-4.61 144.28-5.27L144.28-5.27Q144.96-6.15 145.44-7.25 145.91-8.35 146.21-9.62 146.5-10.89 146.63-12.28 146.77-13.67 146.77-15.11L146.77-15.11Q146.77-16.77 146.41-18.49 146.06-20.21 145.22-21.62 144.37-23.02 143-23.91 141.62-24.8 139.54-24.8L139.54-24.8Q138.1-24.8 136.72-24.35 135.34-23.9 134.08-23.16 132.83-22.41 131.73-21.46 130.63-20.51 129.8-19.51L129.8-19.51Q129.78-18.41 129.76-17.3 129.75-16.19 129.75-15.06L129.75-15.06Q129.7-13.16 129.68-11.28 129.65-9.4 129.65-7.47L129.65-7.47Q129.65-6.91 129.65-6.34 129.65-5.76 129.7-5.13L129.7-5.13 130.36-5.32Q130.63-5.4 130.89-5.46 131.14-5.52 131.34-5.52L131.34-5.52Q132.66-5.52 133.34-4.87 134.02-4.22 134.02-2.98L134.02-2.98Q134.02-2.05 133.66-1.5 133.29-0.95 132.73-0.65 132.17-0.34 131.5-0.22 130.82-0.1 130.19-0.02L130.19-0.02Q129.85 0.02 129.53 0.06 129.21 0.1 128.99 0.17L128.99 0.17Q128.21 0.39 127.65 0.55 127.09 0.71 126.67 0.71L126.67 0.71Q125.23 0.71 124.71 0.05 124.18-0.61 124.18-1.81ZM159.78-14.65L159.78-14.65Q159.78-17.97 160.89-20.79 162-23.61 163.96-25.67 165.93-27.73 168.62-28.91 171.3-30.08 174.45-30.08L174.45-30.08Q175.87-30.08 177.26-29.8 178.65-29.52 179.91-28.97 181.16-28.42 182.24-27.61 183.31-26.81 184.12-25.76L184.12-25.76Q184.12-26.39 184.12-27.56 184.12-28.74 184.11-30.35 184.09-31.96 184.07-33.94 184.05-35.91 184.02-38.13L184.02-38.13 181.95-38.13Q181.38-38.13 180.85-38.01 180.31-37.89 179.7-37.89L179.7-37.89Q179.26-37.89 178.81-38.1 178.36-38.31 178-38.68 177.65-39.06 177.42-39.61 177.18-40.16 177.18-40.87L177.18-40.87Q177.18-42.14 177.84-42.82 178.5-43.51 179.5-43.51L179.5-43.51Q179.75-43.51 180.09-43.49 180.43-43.48 180.87-43.36L180.87-43.36Q182.48-43.33 184.12-43.4 185.75-43.46 187.63-43.48L187.63-43.48Q188.66-43.48 189.25-42.77 189.83-42.07 189.83-40.89L189.83-40.89Q189.83-40.06 189.61-39.6L189.61-39.6Q189.56-38.01 189.54-35.68 189.51-33.35 189.49-30.71 189.47-28.08 189.45-25.34 189.44-22.61 189.43-20.23 189.42-17.85 189.42-16.02 189.42-14.18 189.42-13.35L189.42-13.35Q189.42-10.96 189.45-9.05 189.49-7.13 189.59-6.03L189.59-6.03 190.03-6.3Q190.54-6.59 191.02-6.81 191.49-7.03 192.05-7.08L192.05-7.08Q192.47-7.13 192.91-6.99 193.35-6.86 193.71-6.56 194.08-6.25 194.32-5.74 194.57-5.22 194.57-4.49L194.57-4.49Q194.57-3.47 194.02-2.84 193.47-2.22 192.88-1.98L192.88-1.98Q192.3-1.71 191.76-1.43 191.22-1.15 190.66-0.85L190.66-0.85Q189.83-0.42 189.06-0.02 188.29 0.37 187.71 0.37L187.71 0.37Q186.54 0.37 185.82-0.74 185.09-1.86 184.73-3.71L184.73-3.71Q183.75-2.71 182.51-1.9 181.26-1.1 179.85-0.51 178.43 0.07 176.88 0.39 175.33 0.71 173.77 0.71L173.77 0.71Q170.59 0.71 168.02-0.49 165.44-1.68 163.61-3.76 161.78-5.83 160.78-8.63 159.78-11.43 159.78-14.65ZM165.22-14.65L165.22-14.65Q165.22-12.72 165.83-10.9 166.44-9.08 167.6-7.67 168.76-6.25 170.42-5.4 172.08-4.54 174.18-4.54L174.18-4.54Q175.79-4.54 177.4-5.07 179.02-5.59 180.37-6.56 181.73-7.52 182.73-8.9 183.73-10.28 184.09-12.01L184.09-12.01Q184.09-13.01 184.09-13.65 184.09-14.28 184.08-14.73 184.07-15.19 184.07-15.56 184.07-15.94 184.07-16.43L184.07-16.43Q183.68-18.19 182.81-19.71 181.95-21.24 180.7-22.36 179.46-23.49 177.9-24.13 176.35-24.78 174.62-24.78L174.62-24.78Q172.59-24.78 170.87-24.05 169.15-23.32 167.9-21.98 166.64-20.65 165.93-18.79 165.22-16.92 165.22-14.65ZM200.28-1.83L200.28-1.83Q200.18-2.49 200.31-3.23 200.45-3.98 200.57-4.57L200.57-4.57Q200.62-7.13 200.63-9.78 200.64-12.43 200.62-15.55 200.6-18.68 200.57-22.46 200.55-26.25 200.55-31.08L200.55-31.08 200.25-34.38Q200.25-35.4 200.35-36.06 200.45-36.72 200.75-37.11 201.06-37.5 201.61-37.65 202.16-37.79 203.04-37.79L203.04-37.79Q204.26-37.79 205.45-37.83 206.65-37.87 207.87-37.92L207.87-37.92Q209.12-37.96 210.32-38.05 211.53-38.13 212.83-38.13L212.83-38.13Q213.68-38.13 214.96-38.09 216.24-38.04 217.65-37.73 219.05-37.43 220.46-36.79 221.86-36.16 222.97-34.99 224.08-33.81 224.78-32.02 225.47-30.22 225.47-27.61L225.47-27.61Q225.47-25.37 224.55-23.49 223.62-21.61 222.18-20.21L222.18-20.21Q222.79-19.97 223.35-19.65 223.91-19.34 224.36-19.01 224.81-18.68 225.14-18.37 225.47-18.07 225.64-17.87L225.64-17.87Q226.69-16.58 227.37-14.95 228.04-13.33 228.04-11.74L228.04-11.74Q228.04-9.01 227.46-7.04 226.89-5.08 225.84-3.72 224.79-2.37 223.3-1.54 221.81-0.71 219.97-0.26 218.12 0.2 215.96 0.34 213.8 0.49 211.44 0.49L211.44 0.49Q211.02 0.49 210.26 0.44 209.51 0.39 208.6 0.31 207.7 0.22 206.75 0.1 205.8-0.02 204.99-0.17L204.99-0.17Q204.38 0.1 203.33 0.1L203.33 0.1Q202.01 0.1 201.22-0.35 200.42-0.81 200.28-1.83ZM206.02-22.09L206.02-21.78Q206.92-21.66 207.85-21.57 208.77-21.48 209.51-21.48L209.51-21.48Q212.41-21.48 214.41-21.7 216.42-21.92 217.66-22.57 218.91-23.22 219.46-24.37 220-25.51 220-27.37L220-27.37Q220-28.91 219.59-29.98 219.17-31.05 218.28-31.73 217.39-32.4 216.01-32.7 214.63-33.01 212.73-33.01L212.73-33.01Q212.02-33.01 210.42-33 208.82-32.98 206.02-32.86L206.02-32.86 206.02-32.81Q206.02-32.76 206.03-32.73 206.04-32.69 206.04-32.64L206.04-32.64Q206.09-30.13 206.08-27.54 206.06-24.95 206.02-22.09L206.02-22.09ZM206.02-5.1L206.02-5.1Q206.6-5 207.21-4.91 207.82-4.81 208.62-4.74 209.41-4.66 210.46-4.61 211.51-4.57 212.95-4.57L212.95-4.57Q214.61-4.57 216.33-4.76 218.05-4.96 219.46-5.62 220.86-6.27 221.75-7.53 222.64-8.79 222.64-10.89L222.64-10.89Q222.64-12.62 221.97-13.79 221.3-14.97 220.31-15.69 219.32-16.41 218.17-16.71 217.03-17.02 216.07-17.02L216.07-17.02Q215.22-17.02 214.33-16.99 213.44-16.97 212.29-16.93 211.14-16.89 209.62-16.86 208.09-16.82 205.99-16.8L205.99-16.8Q205.99-13.87 205.99-11.96 205.99-10.06 206-8.78 206.02-7.5 206.02-6.67 206.02-5.83 206.02-5.1ZM234.09-14.72L234.09-14.72Q234.09-17.9 235.27-20.69 236.46-23.49 238.52-25.57 240.58-27.66 243.34-28.87 246.1-30.08 249.25-30.08L249.25-30.08Q252.69-30.08 255.49-28.87 258.28-27.66 260.27-25.57 262.26-23.49 263.34-20.69 264.41-17.9 264.41-14.72L264.41-14.72Q264.41-12.4 263.86-10.35 263.31-8.3 262.31-6.59 261.31-4.88 259.91-3.53 258.5-2.17 256.82-1.23 255.13-0.29 253.22 0.21 251.3 0.71 249.25 0.71L249.25 0.71Q246.17 0.71 243.42-0.4 240.66-1.51 238.58-3.53 236.51-5.54 235.3-8.39 234.09-11.23 234.09-14.72ZM239.73-14.72L239.73-14.72Q239.73-12.4 240.39-10.52 241.05-8.64 242.28-7.31 243.51-5.98 245.27-5.26 247.03-4.54 249.23-4.54L249.23-4.54Q251.18-4.54 252.91-5.2 254.65-5.86 255.95-7.14 257.26-8.42 258.03-10.33 258.8-12.23 258.8-14.72L258.8-14.72Q258.8-16.77 258.15-18.62 257.5-20.46 256.28-21.83 255.06-23.19 253.28-24 251.5-24.8 249.23-24.8L249.23-24.8Q246.96-24.8 245.2-24 243.44-23.19 242.22-21.83 241-20.46 240.36-18.62 239.73-16.77 239.73-14.72ZM269.73-14.72L269.73-14.72Q269.73-17.9 270.92-20.69 272.1-23.49 274.16-25.57 276.23-27.66 278.98-28.87 281.74-30.08 284.89-30.08L284.89-30.08Q288.33-30.08 291.13-28.87 293.93-27.66 295.92-25.57 297.9-23.49 298.98-20.69 300.05-17.9 300.05-14.72L300.05-14.72Q300.05-12.4 299.5-10.35 298.95-8.3 297.95-6.59 296.95-4.88 295.55-3.53 294.15-2.17 292.46-1.23 290.78-0.29 288.86 0.21 286.94 0.71 284.89 0.71L284.89 0.71Q281.82 0.71 279.06-0.4 276.3-1.51 274.22-3.53 272.15-5.54 270.94-8.39 269.73-11.23 269.73-14.72ZM275.37-14.72L275.37-14.72Q275.37-12.4 276.03-10.52 276.69-8.64 277.92-7.31 279.15-5.98 280.91-5.26 282.67-4.54 284.87-4.54L284.87-4.54Q286.82-4.54 288.55-5.2 290.29-5.86 291.59-7.14 292.9-8.42 293.67-10.33 294.44-12.23 294.44-14.72L294.44-14.72Q294.44-16.77 293.79-18.62 293.14-20.46 291.92-21.83 290.7-23.19 288.92-24 287.14-24.8 284.87-24.8L284.87-24.8Q282.6-24.8 280.84-24 279.08-23.19 277.86-21.83 276.64-20.46 276.01-18.62 275.37-16.77 275.37-14.72ZM307.79-1.71L307.79-1.71Q307.79-2.95 307.96-4.15 308.13-5.35 308.13-6.69L308.13-6.69Q308.13-8.13 308.12-10.41 308.11-12.7 308.08-15.45 308.06-18.21 308.03-21.3 308.01-24.39 307.97-27.42 307.94-30.44 307.9-33.26 307.86-36.08 307.84-38.33L307.84-38.33Q307.16-38.21 306.08-38.21L306.08-38.21Q305.64-38.21 305.19-38.35 304.74-38.5 304.36-38.81 303.98-39.11 303.75-39.62 303.52-40.14 303.52-40.87L303.52-40.87Q303.52-42.16 304.2-42.83 304.88-43.51 305.84-43.51L305.84-43.51Q306.2-43.51 306.58-43.41 306.96-43.31 307.37-43.31L307.37-43.31Q308.35-43.31 309.32-43.41 310.28-43.51 311.35-43.51L311.35-43.51Q312.38-43.51 313.03-42.83 313.67-42.16 313.67-40.99L313.67-40.99Q313.62-40.33 313.58-39.77 313.53-39.21 313.48-38.55 313.43-37.89 313.38-37.06 313.33-36.23 313.33-35.03L313.33-35.03Q313.28-31.71 313.25-28.82 313.21-25.93 313.19-23.56L313.19-23.56Q314.09-24.8 315.3-25.99 316.51-27.17 317.98-28.08 319.46-28.98 321.19-29.53 322.93-30.08 324.88-30.08L324.88-30.08Q327.22-30.08 329.01-29.46 330.79-28.83 331.97-27.7 333.16-26.56 333.75-24.94 334.35-23.32 334.35-21.34L334.35-21.34Q334.35-19.7 333.85-18.33 333.35-16.97 332.53-15.87 331.72-14.77 330.67-13.94 329.62-13.11 328.52-12.57L328.52-12.57Q329.57-11.69 330.14-10.56 330.71-9.42 331.06-8.13L331.06-8.13Q331.2-7.62 331.37-7.03 331.54-6.45 331.79-5.94 332.03-5.44 332.34-5.11 332.64-4.79 333.01-4.79L333.01-4.79Q333.67-4.79 334.3-5.02 334.94-5.25 335.65-5.25L335.65-5.25Q336.72-5.25 337.44-4.53 338.16-3.81 338.16-2.49L338.16-2.49Q338.16-1.44 337.61-0.81 337.06-0.17 336.22 0.18 335.38 0.54 334.38 0.65 333.38 0.76 332.45 0.76L332.45 0.76Q330.74 0.76 329.64 0.15 328.54-0.46 327.82-1.44 327.1-2.42 326.69-3.61 326.27-4.81 325.93-5.98L325.93-5.98Q325.69-6.81 325.45-7.56 325.22-8.3 324.89-8.86 324.56-9.42 324.12-9.75 323.68-10.08 323.02-10.08L323.02-10.08Q321.19-10.08 320.27-10.64 319.34-11.21 319.34-12.67L319.34-12.67Q319.34-13.96 320.18-14.65 321.02-15.33 322.41-15.33L322.41-15.33Q322.76-15.33 323.01-15.3 323.27-15.26 323.54-15.21L323.54-15.21Q324.17-15.45 325.05-15.88 325.93-16.31 326.74-16.99 327.54-17.68 328.1-18.63 328.66-19.58 328.66-20.9L328.66-20.9Q328.66-23.17 327.31-24.07 325.95-24.98 323.54-24.98L323.54-24.98Q321.88-24.98 320.27-24.12 318.65-23.27 317.27-21.85 315.9-20.43 314.83-18.59 313.77-16.75 313.19-14.77L313.19-14.77 313.26-11.62Q313.26-11.4 313.26-11.12 313.26-10.84 313.27-10.18 313.28-9.52 313.31-8.31 313.33-7.1 313.36-5.05L313.36-5.05Q313.72-5.15 314.13-5.29 314.53-5.42 314.94-5.42L314.94-5.42Q316.29-5.42 316.97-4.77 317.65-4.13 317.65-2.88L317.65-2.88Q317.65-1.95 317.29-1.4 316.92-0.85 316.35-0.55 315.77-0.24 315.09-0.12 314.41 0 313.77 0.07L313.77 0.07Q312.92 0.17 312.05 0.44 311.18 0.71 310.28 0.71L310.28 0.71Q308.84 0.71 308.31 0.1 307.79-0.51 307.79-1.71Z" opacity="1" transform="matrix(1,0,0,1,0,0)" fill="#ff2149" class="wordmark-text-0" data-fill-palette-color="primary" id="text-0"></path></svg></g></svg></g></svg></g></svg></g><g transform="matrix(1,0,0,1,109.94846718443827,0)"><svg viewBox="0 0 96.51906563112347 96.51906563112347" height="96.51906563112347" width="96.51906563112347"><g><svg></svg></g><g id="icon-0"><svg viewBox="0 0 96.51906563112347 96.51906563112347" height="96.51906563112347" width="96.51906563112347"><g><rect width="87.76085412015115" height="87.76085412015115" x="4.379105755486158" y="4.379105755486158" fill="#38e7ff" data-fill-palette-color="accent"></rect><rect width="87.76085412015115" height="87.76085412015115" x="8.881784197001252e-16" y="8.758211510972316" fill="#38e7ff" opacity="0.5" data-fill-palette-color="accent"></rect></g><g transform="matrix(1,0,0,1,12.511730729960448,12.511730729960448)"><svg viewBox="0 0 71.49560417120257 71.49560417120257" height="71.49560417120257" width="71.49560417120257"><g><svg xmlns="http://www.w3.org/2000/svg" xmlns:xlink="http://www.w3.org/1999/xlink" version="1.1" x="0" y="0" viewBox="0 0 32 32" style="enable-background:new 0 0 32 32;" xml:space="preserve" height="71.49560417120257" width="71.49560417120257" class="icon-dxe-0" data-fill-palette-color="quaternary" id="dxe-0"><g fill="#ffffff" data-fill-palette-color="quaternary"><path d="M27 22C25.097 22 23.458 23.081 22.614 24.65L13.082 19.451A6.95 6.95 0 0 0 13.043 12.484L19.135 8.133C20.053 9.263 21.435 10 23 10 25.757 10 28 7.757 28 5S25.757 0 23 0 18 2.243 18 5C18 5.467 18.085 5.91 18.205 6.339L11.797 10.916A6.97 6.97 0 0 0 7 9C3.14 9 0 12.14 0 16S3.14 23 7 23A6.97 6.97 0 0 0 11.835 21.05L22.04 26.614C22.029 26.745 22 26.868 22 27 22 29.757 24.243 32 27 32S32 29.757 32 27 29.757 22 27 22" fill="#ffffff" data-fill-palette-color="quaternary"></path></g></svg></g></svg></g></svg></g></svg></g><g></g></svg></g></svg></g></svg></g><defs></defs></svg><rect width="375.07953" height="240.3357" fill="none" stroke="none" visibility="hidden"></rect></g></svg></g></svg>